<svg xmlns="http://www.w3.org/2000/svg" viewBox="0 0 1024 1024">
  <defs>
    <linearGradient id="bg" x1="0" y1="0" x2="0" y2="1024" gradientUnits="userSpaceOnUse">
      <stop stop-color="#272930"/>
      <stop offset="0.52" stop-color="#0C0D11"/>
      <stop offset="1" stop-color="#040405"/>
    </linearGradient>
    <radialGradient id="lift" cx="0" cy="0" r="1" gradientUnits="userSpaceOnUse" gradientTransform="translate(512 400) scale(520)">
      <stop stop-color="#FFFFFF" stop-opacity="0.055"/>
      <stop offset="1" stop-color="#FFFFFF" stop-opacity="0"/>
    </radialGradient>
    <linearGradient id="rim" x1="0" y1="0" x2="0" y2="430" gradientUnits="userSpaceOnUse">
      <stop stop-color="#FFFFFF" stop-opacity="0.259"/>
      <stop offset="1" stop-color="#FFFFFF" stop-opacity="0"/>
    </linearGradient>
  </defs>
  <path d="M1024.00 512.00 C1024.00 579.40 1023.67 669.82 1023.01 714.20 C1022.35 758.59 1021.37 759.97 1020.04 778.30 C1018.72 796.62 1017.07 810.45 1015.06 824.18 C1013.06 837.90 1010.73 849.53 1008.04 860.66 C1005.35 871.80 1002.32 881.64 998.90 890.99 C995.49 900.33 991.73 908.76 987.56 916.73 C983.40 924.70 978.87 931.96 973.90 938.79 C968.92 945.62 963.57 951.87 957.72 957.72 C951.87 963.57 945.62 968.92 938.79 973.90 C931.96 978.87 924.70 983.40 916.73 987.56 C908.76 991.73 900.33 995.49 890.99 998.90 C881.64 1002.32 871.80 1005.35 860.66 1008.04 C849.53 1010.73 837.90 1013.06 824.18 1015.06 C810.45 1017.07 796.62 1018.72 778.30 1020.04 C759.97 1021.37 758.59 1022.35 714.20 1023.01 C669.82 1023.67 579.40 1024.00 512.00 1024.00 C444.60 1024.00 354.18 1023.67 309.80 1023.01 C265.41 1022.35 264.03 1021.37 245.70 1020.04 C227.38 1018.72 213.55 1017.07 199.82 1015.06 C186.10 1013.06 174.47 1010.73 163.34 1008.04 C152.20 1005.35 142.36 1002.32 133.01 998.90 C123.67 995.49 115.24 991.73 107.27 987.56 C99.30 983.40 92.04 978.87 85.21 973.90 C78.38 968.92 72.13 963.57 66.28 957.72 C60.43 951.87 55.08 945.62 50.10 938.79 C45.13 931.96 40.60 924.70 36.44 916.73 C32.27 908.76 28.51 900.33 25.10 890.99 C21.68 881.64 18.65 871.80 15.96 860.66 C13.27 849.53 10.94 837.90 8.94 824.18 C6.93 810.45 5.28 796.62 3.96 778.30 C2.63 759.97 1.65 758.59 0.99 714.20 C0.33 669.82 0.00 579.40 0.00 512.00 C0.00 444.60 0.33 354.18 0.99 309.80 C1.65 265.41 2.63 264.03 3.96 245.70 C5.28 227.38 6.93 213.55 8.94 199.82 C10.94 186.10 13.27 174.47 15.96 163.34 C18.65 152.20 21.68 142.36 25.10 133.01 C28.51 123.67 32.27 115.24 36.44 107.27 C40.60 99.30 45.13 92.04 50.10 85.21 C55.08 78.38 60.43 72.13 66.28 66.28 C72.13 60.43 78.38 55.08 85.21 50.10 C92.04 45.13 99.30 40.60 107.27 36.44 C115.24 32.27 123.67 28.51 133.01 25.10 C142.36 21.68 152.20 18.65 163.34 15.96 C174.47 13.27 186.10 10.94 199.82 8.94 C213.55 6.93 227.38 5.28 245.70 3.96 C264.03 2.63 265.41 1.65 309.80 0.99 C354.18 0.33 444.60 0.00 512.00 0.00 C579.40 0.00 669.82 0.33 714.20 0.99 C758.59 1.65 759.97 2.63 778.30 3.96 C796.62 5.28 810.45 6.93 824.18 8.94 C837.90 10.94 849.53 13.27 860.66 15.96 C871.80 18.65 881.64 21.68 890.99 25.10 C900.33 28.51 908.76 32.27 916.73 36.44 C924.70 40.60 931.96 45.13 938.79 50.10 C945.62 55.08 951.87 60.43 957.72 66.28 C963.57 72.13 968.92 78.38 973.90 85.21 C978.87 92.04 983.40 99.30 987.56 107.27 C991.73 115.24 995.49 123.67 998.90 133.01 C1002.32 142.36 1005.35 152.20 1008.04 163.34 C1010.73 174.47 1013.06 186.10 1015.06 199.82 C1017.07 213.55 1018.72 227.38 1020.04 245.70 C1021.37 264.03 1022.35 265.41 1023.01 309.80 C1023.67 354.18 1024.00 444.60 1024.00 512.00 Z" fill="url(#bg)"/>
  <path d="M1024.00 512.00 C1024.00 579.40 1023.67 669.82 1023.01 714.20 C1022.35 758.59 1021.37 759.97 1020.04 778.30 C1018.72 796.62 1017.07 810.45 1015.06 824.18 C1013.06 837.90 1010.73 849.53 1008.04 860.66 C1005.35 871.80 1002.32 881.64 998.90 890.99 C995.49 900.33 991.73 908.76 987.56 916.73 C983.40 924.70 978.87 931.96 973.90 938.79 C968.92 945.62 963.57 951.87 957.72 957.72 C951.87 963.57 945.62 968.92 938.79 973.90 C931.96 978.87 924.70 983.40 916.73 987.56 C908.76 991.73 900.33 995.49 890.99 998.90 C881.64 1002.32 871.80 1005.35 860.66 1008.04 C849.53 1010.73 837.90 1013.06 824.18 1015.06 C810.45 1017.07 796.62 1018.72 778.30 1020.04 C759.97 1021.37 758.59 1022.35 714.20 1023.01 C669.82 1023.67 579.40 1024.00 512.00 1024.00 C444.60 1024.00 354.18 1023.67 309.80 1023.01 C265.41 1022.35 264.03 1021.37 245.70 1020.04 C227.38 1018.72 213.55 1017.07 199.82 1015.06 C186.10 1013.06 174.47 1010.73 163.34 1008.04 C152.20 1005.35 142.36 1002.32 133.01 998.90 C123.67 995.49 115.24 991.73 107.27 987.56 C99.30 983.40 92.04 978.87 85.21 973.90 C78.38 968.92 72.13 963.57 66.28 957.72 C60.43 951.87 55.08 945.62 50.10 938.79 C45.13 931.96 40.60 924.70 36.44 916.73 C32.27 908.76 28.51 900.33 25.10 890.99 C21.68 881.64 18.65 871.80 15.96 860.66 C13.27 849.53 10.94 837.90 8.94 824.18 C6.93 810.45 5.28 796.62 3.96 778.30 C2.63 759.97 1.65 758.59 0.99 714.20 C0.33 669.82 0.00 579.40 0.00 512.00 C0.00 444.60 0.33 354.18 0.99 309.80 C1.65 265.41 2.63 264.03 3.96 245.70 C5.28 227.38 6.93 213.55 8.94 199.82 C10.94 186.10 13.27 174.47 15.96 163.34 C18.65 152.20 21.68 142.36 25.10 133.01 C28.51 123.67 32.27 115.24 36.44 107.27 C40.60 99.30 45.13 92.04 50.10 85.21 C55.08 78.38 60.43 72.13 66.28 66.28 C72.13 60.43 78.38 55.08 85.21 50.10 C92.04 45.13 99.30 40.60 107.27 36.44 C115.24 32.27 123.67 28.51 133.01 25.10 C142.36 21.68 152.20 18.65 163.34 15.96 C174.47 13.27 186.10 10.94 199.82 8.94 C213.55 6.93 227.38 5.28 245.70 3.96 C264.03 2.63 265.41 1.65 309.80 0.99 C354.18 0.33 444.60 0.00 512.00 0.00 C579.40 0.00 669.82 0.33 714.20 0.99 C758.59 1.65 759.97 2.63 778.30 3.96 C796.62 5.28 810.45 6.93 824.18 8.94 C837.90 10.94 849.53 13.27 860.66 15.96 C871.80 18.65 881.64 21.68 890.99 25.10 C900.33 28.51 908.76 32.27 916.73 36.44 C924.70 40.60 931.96 45.13 938.79 50.10 C945.62 55.08 951.87 60.43 957.72 66.28 C963.57 72.13 968.92 78.38 973.90 85.21 C978.87 92.04 983.40 99.30 987.56 107.27 C991.73 115.24 995.49 123.67 998.90 133.01 C1002.32 142.36 1005.35 152.20 1008.04 163.34 C1010.73 174.47 1013.06 186.10 1015.06 199.82 C1017.07 213.55 1018.72 227.38 1020.04 245.70 C1021.37 264.03 1022.35 265.41 1023.01 309.80 C1023.67 354.18 1024.00 444.60 1024.00 512.00 Z" fill="url(#lift)"/>
  <path d="M1011.00 512.00 C1011.00 577.69 1010.68 665.81 1010.04 709.07 C1009.39 752.33 1008.43 753.67 1007.14 771.53 C1005.85 789.40 1004.24 802.87 1002.29 816.25 C1000.34 829.63 998.07 840.96 995.44 851.81 C992.82 862.66 989.87 872.26 986.54 881.36 C983.21 890.47 979.55 898.69 975.49 906.45 C971.43 914.22 967.02 921.29 962.17 927.95 C957.32 934.61 952.11 940.70 946.40 946.40 C940.70 952.11 934.61 957.32 927.95 962.17 C921.29 967.02 914.22 971.43 906.45 975.49 C898.69 979.55 890.47 983.21 881.36 986.54 C872.26 989.87 862.66 992.82 851.81 995.44 C840.96 998.07 829.63 1000.34 816.25 1002.29 C802.87 1004.24 789.40 1005.85 771.53 1007.14 C753.67 1008.43 752.33 1009.39 709.07 1010.04 C665.81 1010.68 577.69 1011.00 512.00 1011.00 C446.31 1011.00 358.19 1010.68 314.93 1010.04 C271.67 1009.39 270.33 1008.43 252.47 1007.14 C234.60 1005.85 221.13 1004.24 207.75 1002.29 C194.37 1000.34 183.04 998.07 172.19 995.44 C161.34 992.82 151.74 989.87 142.64 986.54 C133.53 983.21 125.31 979.55 117.55 975.49 C109.78 971.43 102.71 967.02 96.05 962.17 C89.39 957.32 83.30 952.11 77.60 946.40 C71.89 940.70 66.68 934.61 61.83 927.95 C56.98 921.29 52.57 914.22 48.51 906.45 C44.45 898.69 40.79 890.47 37.46 881.36 C34.13 872.26 31.18 862.66 28.56 851.81 C25.93 840.96 23.66 829.63 21.71 816.25 C19.76 802.87 18.15 789.40 16.86 771.53 C15.57 753.67 14.61 752.33 13.96 709.07 C13.32 665.81 13.00 577.69 13.00 512.00 C13.00 446.31 13.32 358.19 13.96 314.93 C14.61 271.67 15.57 270.33 16.86 252.47 C18.15 234.60 19.76 221.13 21.71 207.75 C23.66 194.37 25.93 183.04 28.56 172.19 C31.18 161.34 34.13 151.74 37.46 142.64 C40.79 133.53 44.45 125.31 48.51 117.55 C52.57 109.78 56.98 102.71 61.83 96.05 C66.68 89.39 71.89 83.30 77.60 77.60 C83.30 71.89 89.39 66.68 96.05 61.83 C102.71 56.98 109.78 52.57 117.55 48.51 C125.31 44.45 133.53 40.79 142.64 37.46 C151.74 34.13 161.34 31.18 172.19 28.56 C183.04 25.93 194.37 23.66 207.75 21.71 C221.13 19.76 234.60 18.15 252.47 16.86 C270.33 15.57 271.67 14.61 314.93 13.96 C358.19 13.32 446.31 13.00 512.00 13.00 C577.69 13.00 665.81 13.32 709.07 13.96 C752.33 14.61 753.67 15.57 771.53 16.86 C789.40 18.15 802.87 19.76 816.25 21.71 C829.63 23.66 840.96 25.93 851.81 28.56 C862.66 31.18 872.26 34.13 881.36 37.46 C890.47 40.79 898.69 44.45 906.45 48.51 C914.22 52.57 921.29 56.98 927.95 61.83 C934.61 66.68 940.70 71.89 946.40 77.60 C952.11 83.30 957.32 89.39 962.17 96.05 C967.02 102.71 971.43 109.78 975.49 117.55 C979.55 125.31 983.21 133.53 986.54 142.64 C989.87 151.74 992.82 161.34 995.44 172.19 C998.07 183.04 1000.34 194.37 1002.29 207.75 C1004.24 221.13 1005.85 234.60 1007.14 252.47 C1008.43 270.33 1009.39 271.67 1010.04 314.93 C1010.68 358.19 1011.00 446.31 1011.00 512.00 Z" fill="none" stroke="url(#rim)" stroke-width="12"/>
  <rect x="228" y="478" width="102" height="223" rx="51" fill="#FFFFFF" fill-opacity="0.55"/>
  <rect x="372" y="389" width="102" height="312" rx="51" fill="#FFFFFF" fill-opacity="0.75"/>
  <path d="M563 520 L652 612 L773 364" fill="none" stroke="#FFFFFF" stroke-width="98" stroke-linecap="round" stroke-linejoin="round"/>
</svg>
